<svg width="1404" height="479" viewBox="0 0 1404 479" fill="none" xmlns="http://www.w3.org/2000/svg">
<g clip-path="url(#clip0_2402_453)">
<path d="M484.908 281.5C478.349 303.718 466.275 350.216 470.451 358.469" stroke="#081422" stroke-width="3" stroke-linecap="round"/>
<path d="M472.657 291.996L482.571 285.845C483.409 285.325 484.501 285.494 485.143 286.242L492.039 294.279C492.685 295.032 493.786 295.197 494.625 294.667L519.383 279.025C523.355 275.87 523.289 273.008 521.766 271.138C519.181 267.963 511.878 266.76 506.883 266.764C506.039 266.764 505.316 267.337 505.072 268.145L503.378 273.752C503.199 274.342 502.755 274.821 502.176 275.032C489.131 279.787 480.763 276.782 477.388 272.623C477.04 272.193 476.949 271.621 477.076 271.083L477.939 267.442C478.218 266.266 477.4 265.112 476.192 265.055C469.357 264.728 459 265.725 459 271.926C459 278.292 465.904 287.134 470.216 291.7C470.851 292.374 471.87 292.485 472.657 291.996Z" fill="#081422"/>
<path d="M440.129 344.034C443.326 310.018 453.584 281.91 458.513 272.506C460.112 268.929 463.949 266.465 468.105 266.147C473.301 265.75 513.014 265.809 522.86 270.916C532.052 275.685 530.453 275.685 528.055 302.309C526.137 323.609 518.463 351.982 514.866 363.506C512.468 369.864 498 375.268 483.293 369.864C464.908 363.108 470.503 366.685 453.717 363.506C440.289 360.962 439.568 349.995 440.129 344.034Z" stroke="#081422" stroke-width="3"/>
<path d="M529.208 281.501C526.595 278.705 520.666 275.908 517.844 287.094C514.318 301.076 506.419 332.305 505.696 336.231C504.521 342.623 504.13 359.402 510.399 349.414C515.415 341.425 521.24 307.867 522.938 291.888" stroke="#081422" stroke-width="3" stroke-linecap="round"/>
<ellipse cx="1.99353" cy="3.18485" rx="1.99353" ry="3.18485" transform="matrix(0.973411 0.229067 -0.229632 0.973278 485.463 289)" fill="#081422"/>
<ellipse cx="1.99353" cy="3.18485" rx="1.99353" ry="3.18485" transform="matrix(0.973411 0.229067 -0.229632 0.973278 481.888 301.886)" fill="#081422"/>
<ellipse cx="1.99353" cy="3.18485" rx="1.99353" ry="3.18485" transform="matrix(0.973411 0.229067 -0.229632 0.973278 477.901 320.991)" fill="#081422"/>
<ellipse cx="1.99353" cy="3.18485" rx="1.99353" ry="3.18485" transform="matrix(0.973411 0.229067 -0.229632 0.973278 474.713 340.896)" fill="#081422"/>
<path fill-rule="evenodd" clip-rule="evenodd" d="M390.936 294.603C389.27 292.63 386.089 294.31 386.786 296.795C387.335 298.755 385.347 300.464 383.489 299.631C381.132 298.576 378.995 301.468 380.702 303.405C382.048 304.932 381 307.334 378.964 307.389C376.384 307.459 375.715 310.992 378.093 311.997C379.968 312.789 380.068 315.407 378.259 316.339C375.965 317.52 376.897 320.993 379.475 320.868C381.509 320.77 382.736 323.086 381.51 324.709C379.956 326.767 382.307 329.491 384.575 328.262C386.364 327.292 388.475 328.847 388.076 330.841C387.57 333.37 390.871 334.805 392.381 332.714C393.572 331.064 396.149 331.55 396.657 333.521C397.3 336.019 400.896 335.882 401.348 333.343C401.705 331.34 404.237 330.66 405.55 332.216C407.216 334.189 410.397 332.508 409.701 330.023C409.152 328.063 411.139 326.355 412.998 327.187C415.354 328.242 417.491 325.35 415.784 323.413C414.438 321.886 415.487 319.484 417.522 319.429C420.102 319.359 420.771 315.826 418.393 314.822C416.518 314.029 416.418 311.411 418.228 310.479C420.521 309.298 419.589 305.825 417.011 305.95C414.977 306.049 413.75 303.733 414.976 302.109C416.53 300.051 414.179 297.327 411.911 298.557C410.122 299.526 408.011 297.971 408.41 295.977C408.916 293.448 405.615 292.014 404.105 294.105C402.915 295.754 400.337 295.268 399.83 293.298C399.187 290.799 395.59 290.936 395.138 293.476C394.782 295.479 392.249 296.158 390.936 294.603ZM388.392 310.241C388.309 310.086 388.371 309.9 388.518 309.822C388.665 309.744 388.854 309.798 388.936 309.953C389.018 310.108 388.957 310.295 388.81 310.373C388.662 310.45 388.474 310.396 388.392 310.241ZM392.812 307.905C394.025 310.193 393.15 313.03 390.859 314.24C388.568 315.451 385.728 314.578 384.515 312.289C383.303 310.001 384.178 307.165 386.469 305.954C388.76 304.744 391.6 305.617 392.812 307.905ZM408.113 316.215C407.966 316.293 407.904 316.479 407.986 316.634C408.069 316.789 408.257 316.843 408.405 316.765C408.552 316.687 408.613 316.501 408.531 316.346C408.449 316.191 408.26 316.137 408.113 316.215ZM410.454 320.633C412.745 319.422 413.619 316.586 412.407 314.298C411.195 312.01 408.355 311.136 406.064 312.347C403.773 313.558 402.898 316.394 404.11 318.682C405.323 320.97 408.163 321.844 410.454 320.633ZM400.258 301.42C400.176 300.043 398.992 298.992 397.613 299.073C396.233 299.154 395.182 300.337 395.264 301.714L396.664 325.167C396.746 326.545 397.931 327.596 399.31 327.515C400.689 327.433 401.74 326.251 401.658 324.873L400.258 301.42Z" fill="#081422"/>
<path d="M591.107 266.655C591.107 277.662 582.064 286.617 570.869 286.617C559.675 286.617 550.632 277.662 550.632 266.655C550.632 255.648 559.675 246.692 570.869 246.692C582.064 246.692 591.107 255.648 591.107 266.655Z" stroke="#081422" stroke-width="3"/>
<path d="M570.869 276.276V279.237" stroke="#081422" stroke-width="3" stroke-linecap="round"/>
<path d="M570.869 257.035V254.074" stroke="#081422" stroke-width="3" stroke-linecap="round"/>
<path d="M576.304 258.341C574.939 257.661 572.867 257.026 570.929 257.033C568.594 257.042 566.455 257.985 565.985 260.91C565.365 264.767 570.064 266.152 572.864 267.546C576.734 269.473 576.699 273.085 574.369 274.825C573.321 275.607 572.131 276.037 570.929 276.199C569.172 276.436 567.389 276.102 565.985 275.467" stroke="#081422" stroke-width="3" stroke-linecap="round"/>
<path d="M640.667 288.594L671.929 332.204" stroke="#081422" stroke-width="3" stroke-linecap="round"/>
<path d="M643.339 329.152L658.933 342.519" stroke="#081422" stroke-width="3" stroke-linecap="round"/>
<path d="M654.114 360.382L609.157 343.854" stroke="#081422" stroke-width="3" stroke-linecap="round"/>
<path d="M628.308 378.506L649.471 377.785" stroke="#081422" stroke-width="3" stroke-linecap="round"/>
<path d="M597.547 408.329L655.308 394.16" stroke="#081422" stroke-width="3" stroke-linecap="round"/>
<path d="M716.49 378.071C713.532 389.095 708.394 398.353 702.539 404.42C696.65 410.523 690.266 413.194 684.706 411.706C679.145 410.218 674.953 404.717 672.909 396.491C670.876 388.313 671.061 377.729 674.019 366.706C676.976 355.682 682.115 346.423 687.97 340.356C693.858 334.253 700.242 331.583 705.803 333.071C711.363 334.558 715.555 340.059 717.6 348.285C719.633 356.463 719.447 367.047 716.49 378.071Z" stroke="#081422" stroke-width="3"/>
<path d="M691.427 379.025C693.536 379.589 696.104 376.846 697.163 372.898C698.222 368.95 697.372 365.292 695.263 364.728C693.155 364.163 690.587 366.907 689.528 370.855C688.468 374.803 689.319 378.461 691.427 379.025Z" fill="#081422"/>
<path d="M780.664 402.905C783.418 398.738 784.326 391.796 784.435 388.846L791.129 393.447C793.211 397.886 790.462 401.015 788.827 402.025L780.664 402.905Z" fill="#081422"/>
<path d="M691.659 411.521L788.827 402.023M791.129 393.445L709.015 334.438L791.129 393.445Z" stroke="#081422" stroke-width="3" stroke-linecap="round"/>
<path d="M691.572 377.532L711.414 391.269M694.641 366.094L718.446 365.058L694.641 366.094Z" stroke="#081422" stroke-width="3" stroke-linecap="round"/>
<path d="M795.885 537.031L775.762 557.295C759.316 572.033 748.458 560.699 741.789 554.635C734.873 544.91 724.004 532.763 724.004 492.118C724.004 466.708 730.179 454.328 755.128 463.702" stroke="#081422" stroke-width="3" stroke-linecap="round"/>
<path d="M791.129 393.446C791.96 395.116 792.662 399.169 788.827 402.025" stroke="#081422" stroke-width="3" stroke-linecap="round"/>
<path d="M784.022 388.481C784.151 391.496 783.263 397.983 780.186 402.778" stroke="#081422" stroke-width="3" stroke-linecap="round"/>
<path d="M837.385 433.405C820.341 433.405 781.807 442.286 765.998 478.55" stroke="#081422" stroke-width="3" stroke-linecap="round"/>
<path d="M722.138 434.747C721.011 436.189 719.789 439.717 723.177 442.96C723.428 443.2 723.704 443.439 724.008 443.675C728.408 447.101 730.573 443.985 731.106 441.999" stroke="#081422" stroke-width="3" stroke-linecap="round"/>
<path d="M735.579 435.815C736.906 439.254 734.329 440.154 732.875 440.174C732.53 440.134 732.115 440.069 731.649 439.976C729.101 439.466 725.036 438.106 722.649 435.395C722.453 435.172 722.284 434.956 722.138 434.747C720.188 431.946 722.569 430.37 724.12 429.914" stroke="#081422" stroke-width="3" stroke-linecap="round"/>
<path d="M726.672 424.214C725.235 424.17 722.576 424.804 723.439 427.69C724.301 430.577 731.577 434.21 735.108 435.666C735.262 435.724 735.419 435.775 735.579 435.817C737.024 436.197 738.633 435.87 739.152 433.938C739.884 431.209 736.633 429.348 735.88 428.977" stroke="#081422" stroke-width="3" stroke-linecap="round"/>
<path d="M737.197 418.345C735.696 418.539 733.977 420.242 736.762 422.826C739.547 425.41 738.141 427.537 737.09 428.277C735.519 429.049 731.173 428.788 726.357 421.574C721.542 414.36 732.821 413.684 739.063 414.248" stroke="#081422" stroke-width="3" stroke-linecap="round"/>
<path d="M749.262 427.703C747.133 424.835 742.674 420.423 741.866 425.724C741.057 431.024 744.099 434.239 745.721 435.184" stroke="#081422" stroke-width="3" stroke-linecap="round"/>
<path d="M743.761 452.025C742.691 450.292 741.443 445.225 745.002 438.821" stroke="#081422" stroke-width="3" stroke-linecap="round"/>
<path d="M743.321 406.958L737.192 422.175" stroke="#081422" stroke-width="3" stroke-linecap="round"/>
<path d="M748.687 429.848L760.428 405.151" stroke="#081422" stroke-width="3" stroke-linecap="round"/>
<path d="M727.152 449.114C725.938 453.642 722.192 459.025 726.58 461.731C731.939 465.036 733.981 459.881 736.645 454.719L744.158 439.107" stroke="#081422" stroke-width="3" stroke-linecap="round"/>
<path d="M753.152 424.031C755.787 433.323 755.869 452.356 755.869 490.1" stroke="#081422" stroke-width="3" stroke-linecap="round"/>
<path d="M891.506 479.043L887.539 472.961C883.673 467.034 876.148 464.668 869.579 467.314L860.125 471.121C854.226 473.496 847.468 471.848 843.329 467.026L832.47 454.373" stroke="#081422" stroke-width="3" stroke-linecap="round"/>
<path d="M836.916 434.35C834.693 427.936 836.718 423.619 838.694 422.797C850.551 433.651 868.534 429.622 875.204 423.044C877.575 425.214 876.192 431.636 875.204 433.61C862.359 447.819 844.08 439.859 836.916 434.35Z" fill="#081422"/>
<path d="M802.858 333.504C808.292 352.993 811.009 354.72 818.914 363.354C818.914 354.821 820.381 340.498 820.381 334.534C846.263 334.534 868.106 323.983 875.793 318.707C875.517 336.599 892.312 348.297 892.312 348.297C892.312 348.297 889.904 355.523 888.527 371.695C887.426 384.632 890.592 382.132 892.312 379.265C897.269 363.299 905.391 367.566 908.833 371.695C951.067 303.161 886.118 289.919 873.728 291.18C864.367 283.198 851.311 276.942 842.133 276.024C809.033 272.715 794.046 301.904 802.858 333.504Z" fill="#081422"/>
<path d="M891.733 391.462C887.287 418.571 857.443 438.065 835.907 416.104C814.371 394.144 818.681 353.947 820.982 335.188" stroke="#081422" stroke-width="3" stroke-linecap="round"/>
<path d="M909.32 370.014C912.038 376.674 909.488 391.434 891.733 391.434" stroke="#081422" stroke-width="3" stroke-linecap="round"/>
<path d="M901.489 373.672C901.882 375.097 901.567 378.475 897.167 380.579" stroke="#081422" stroke-width="3" stroke-linecap="round"/>
<path d="M821.581 387.981C815.786 385.569 811.7 376.634 813.272 362.325" stroke="#081422" stroke-width="3" stroke-linecap="round"/>
<path d="M834.582 370.624C832.936 369.964 832.293 367.711 833.146 365.591C833.999 363.472 836.024 362.289 837.67 362.949C839.315 363.609 839.958 365.863 839.106 367.982C838.253 370.102 836.228 371.285 834.582 370.624Z" fill="#081422"/>
<path d="M864.799 371.475C863.129 370.878 862.351 368.788 863.062 366.807C863.772 364.826 865.701 363.704 867.371 364.301C869.04 364.898 869.818 366.988 869.108 368.969C868.398 370.95 866.469 372.072 864.799 371.475Z" fill="#081422"/>
<path d="M877.899 361.831C877.119 359.539 873.756 355.297 866.537 356.673" stroke="#081422" stroke-width="3" stroke-linecap="round"/>
<path d="M843.317 357.391C841.596 355.902 836.913 353.817 831.955 357.391" stroke="#081422" stroke-width="3" stroke-linecap="round"/>
<path d="M847.663 368.073C847.088 372.945 843.312 383.368 849.735 383.368" stroke="#081422" stroke-width="3" stroke-linecap="round"/>
<path d="M875.919 431.678C925.075 431.678 986.582 483.237 967.408 547.624" stroke="#081422" stroke-width="3" stroke-linecap="round"/>
<path d="M400.503 283.838C400.091 268.132 395.457 265.597 433.5 256.5C479.5 245.501 536.667 242.344 550.5 268" stroke="#081422" stroke-width="3" stroke-linecap="round"/>
<path d="M398.452 333.509C396.97 344.117 397.859 367.651 401.416 371.993" stroke="#081422" stroke-width="3" stroke-linecap="round"/>
<path d="M570.128 286.638C573.586 299.466 571.61 328.823 570.128 344.611C569.225 354.23 572.944 359.308 576.333 361.547C577.154 362.089 577.868 364.558 577.717 365.53C576.856 371.079 579.376 383.034 560.5 385C536.554 387.494 492.659 390.195 482.567 387.021C482.519 387.006 482.475 386.996 482.425 386.988L408.356 375.118C405.832 374.713 403.464 373.636 401.5 372V372" stroke="#081422" stroke-width="3" stroke-linecap="round"/>
<path d="M855.781 400.998C855.43 402.96 854.61 404.588 853.633 405.642C852.645 406.709 851.632 407.07 850.805 406.922C849.978 406.774 849.153 406.085 848.597 404.742C848.047 403.414 847.844 401.604 848.196 399.642C848.547 397.68 849.367 396.052 850.344 394.998C851.332 393.931 852.345 393.57 853.172 393.718C853.998 393.866 854.823 394.555 855.38 395.898C855.929 397.226 856.133 399.036 855.781 400.998Z" stroke="#081422" stroke-width="3"/>
<path d="M97.0099 169.181C105.315 165.804 128.563 160.67 155.115 167.15" stroke="#081422" stroke-width="3" stroke-linecap="round"/>
<path d="M151.105 174.953C144.503 177.831 140.636 188.683 162.088 192.144L180.593 192.629C180.758 192.633 180.917 192.677 181.059 192.76C186.657 196.064 193.304 204.441 180.018 217.878C179.809 218.089 179.697 218.386 179.711 218.682C179.998 224.501 176.437 231.308 170.799 233.957C170.645 234.029 170.51 234.135 170.407 234.271C168.339 236.984 163.172 242.825 157.694 242.692C157.142 242.678 156.631 243.046 156.424 243.558C154.995 247.088 148.978 251.142 142.661 250.896C134.038 250.561 97.0319 229.383 75.7022 210.734" stroke="#081422" stroke-width="3" stroke-linecap="round"/>
<path d="M183.145 186.251C188.947 187.891 198.849 193.854 192.039 204.583" stroke="#081422" stroke-width="3" stroke-linecap="round"/>
<path d="M73.9459 259.664C82.2468 257.624 101.327 250.775 111.241 239.702" stroke="#081422" stroke-width="3" stroke-linecap="round"/>
<path d="M89.6898 268.33L111.446 239.736" stroke="#081422" stroke-width="3" stroke-linecap="round"/>
<path d="M100.597 269.877C100.756 265.396 103.372 253.469 112.567 241.604" stroke="#081422" stroke-width="3" stroke-linecap="round"/>
<path d="M153.602 185.707C157.684 180.522 160.494 164.768 165.217 149.14" stroke="#081422" stroke-width="3" stroke-linecap="round"/>
<path d="M154.642 187.14C157.994 182.541 166.748 172.449 174.944 168.872" stroke="#081422" stroke-width="3" stroke-linecap="round"/>
<path d="M154.98 186.352C158.423 183.81 171.418 179.965 182.882 176.069" stroke="#081422" stroke-width="3" stroke-linecap="round"/>
<path d="M153.948 136.337L153.483 139.219" stroke="#081422" stroke-width="3" stroke-linecap="round"/>
<path d="M157.203 116.164L157.668 113.282" stroke="#081422" stroke-width="3" stroke-linecap="round"/>
<path d="M162.346 118.399C161.104 117.468 159.152 116.469 157.224 116.166C154.901 115.801 152.615 116.446 151.653 119.437C150.384 123.382 154.822 125.588 157.369 127.498C160.89 130.139 160.244 133.92 157.634 135.371C156.46 136.023 155.205 136.283 153.982 136.26C152.195 136.227 150.479 135.591 149.191 134.699" stroke="#081422" stroke-width="3" stroke-linecap="round"/>
<path d="M173.336 107.996C165.419 108.972 147.626 108.368 139.793 98.1484" stroke="#081422" stroke-width="3" stroke-linecap="round"/>
<path d="M166.632 144.299C159.409 144.471 142.881 142.495 139.51 134.009" stroke="#081422" stroke-width="3" stroke-linecap="round"/>
<path d="M180.222 104.67L173.41 146.893C173.351 147.259 173.099 147.562 172.745 147.674C164.492 150.282 147.25 152.214 139.531 140.36C139.427 140.2 139.372 140.009 139.374 139.818L139.828 79.5654" stroke="#081422" stroke-width="3" stroke-linecap="round"/>
<path d="M175.908 101.23C164.351 102.463 140.971 100.282 139.907 81.6924C138.843 63.1026 160.876 55.3634 177.041 57.4797C186.299 58.6918 203.079 65.3136 196.137 82.1048C192.477 88.8796 178.927 94.8356 167.35 89.9988M167.35 89.9988C163.674 88.4631 160.197 85.8396 157.299 81.8089C157.268 81.7668 157.241 81.7216 157.218 81.6747C154.481 75.9066 167.993 64.5687 180.691 71.5865C190.128 76.8018 178.895 80.2762 169.638 80.8252C169.164 80.8534 168.769 81.2033 168.693 81.6725L167.35 89.9988Z" stroke="#081422" stroke-width="3" stroke-linecap="round"/>
<path d="M156.974 80.8535L154.77 98.4513" stroke="#081422" stroke-width="3" stroke-linecap="round"/>
<path d="M183.915 76.541L181.723 90.1277" stroke="#081422" stroke-width="3" stroke-linecap="round"/>
<path d="M189.62 166.244L187.833 167.688" stroke="#081422" stroke-width="3" stroke-linecap="round"/>
<path d="M202.134 156.144L203.922 154.7" stroke="#081422" stroke-width="3" stroke-linecap="round"/>
<path d="M203.972 160.147C203.734 158.952 203.114 157.345 202.144 156.158C200.975 154.728 199.296 153.908 197.16 155.155C194.343 156.799 195.783 160.414 196.272 162.867C196.947 166.257 194.58 168.132 192.288 167.614C191.257 167.381 190.385 166.875 189.681 166.222C188.651 165.266 187.98 163.995 187.693 162.798" stroke="#081422" stroke-width="3" stroke-linecap="round"/>
<path d="M178.907 158.741C179.763 164.371 184.533 176.082 196.771 177.887" stroke="#081422" stroke-width="3" stroke-linecap="round"/>
<path d="M194.528 132.746C196.294 141.48 205.936 159.637 230.379 162.398" stroke="#081422" stroke-width="3" stroke-linecap="round"/>
<path d="M173.992 158.276C175.997 175.501 190.23 181.659 197.408 182.646C197.594 182.671 197.778 182.639 197.948 182.56L246.283 159.864C247.262 159.404 246.905 157.88 245.823 157.861C207.409 157.169 198.216 136.084 198.401 121.373C198.415 120.246 196.575 119.625 196.002 120.595L174.123 157.657C174.014 157.842 173.967 158.062 173.992 158.276Z" stroke="#081422" stroke-width="3" stroke-linecap="round"/>
<path d="M198.223 117.711C201.335 108.92 213.8 94.6247 238.768 107.778C263.736 120.931 259.362 138.418 254.054 145.517C250.672 150.041 228.611 151.512 217.35 135.582C202.015 113.887 226.719 110.48 237.427 120.023C246.457 128.07 245.861 133.775 243.426 136.621C240.888 138.957 233.923 138.212 229.753 133.693C229.28 133.18 228.429 133.197 228.042 133.777L224.65 138.872" stroke="#081422" stroke-width="3" stroke-linecap="round"/>
<path d="M253.028 146.621L243.643 157.568" stroke="#081422" stroke-width="3" stroke-linecap="round"/>
<path d="M236.516 147.969L243.393 136.828" stroke="#081422" stroke-width="3" stroke-linecap="round"/>
<path d="M200.922 133.778L212.397 121.689" stroke="#081422" stroke-width="3" stroke-linecap="round"/>
<path d="M225.869 86.9567L227.035 84.2803" stroke="#081422" stroke-width="3" stroke-linecap="round"/>
<path d="M230.296 90.3984C229.325 89.1891 227.681 87.7387 225.889 86.9681C223.729 86.0395 221.353 86.0985 219.678 88.7576C217.469 92.2647 221.22 95.4994 223.214 97.9804C224.431 99.4951 224.805 101.024 224.595 102.325" stroke="#081422" stroke-width="3" stroke-linecap="round"/>
<path d="M205.381 107.461C203.795 106.361 200.685 102.986 200.934 98.2953L207.345 58.56C207.514 57.5106 209.169 57.3544 209.624 58.315C214.462 68.5329 227.399 82.3992 251.796 78.1984C259.524 76.2067 273.023 68.3589 265.189 52.9012C257.355 37.4434 237.384 35.0378 228.377 35.7672C221.535 37.0738 210.862 43.5845 222.907 59.1746C225.414 62.0016 229.884 65.7113 235.096 67.5784M235.096 67.5784C240.185 69.4013 245.981 69.4678 251.346 65.2416C262.208 56.6867 247.368 46.6145 238.427 45.6261C230.222 44.719 218.652 48.0785 237.197 57.2136C237.635 57.4294 237.878 57.9367 237.743 58.4059L235.096 67.5784Z" stroke="#081422" stroke-width="3" stroke-linecap="round"/>
<path d="M227.215 49.5201L223.838 59.9585" stroke="#081422" stroke-width="3" stroke-linecap="round"/>
<path d="M211.093 72.0537C216.484 77.9927 231.623 88.8416 249.049 84.7253" stroke="#081422" stroke-width="3" stroke-linecap="round"/>
<path d="M263.644 71.6607L237.871 106.789" stroke="#081422" stroke-width="3" stroke-linecap="round"/>
<path d="M253.94 62.2796L247.916 78.6274" stroke="#081422" stroke-width="3" stroke-linecap="round"/>
<path d="M196.139 82.1019L187.509 130.345" stroke="#081422" stroke-width="3" stroke-linecap="round"/>
<path d="M217.573 45.0051L213.765 64.6677" stroke="#081422" stroke-width="3" stroke-linecap="round"/>
<path d="M1235.13 439.952C1239.02 440.857 1250.06 441.473 1252.23 434.521" stroke="#081422" stroke-width="3" stroke-linecap="round"/>
<path d="M1240.83 424.747C1247.34 430.992 1257.66 441.039 1263.09 432.893L1266.35 427.462" stroke="#081422" stroke-width="3" stroke-linecap="round"/>
<path d="M1240.83 407.911C1248.25 414.971 1271.02 431.915 1281.01 425.833C1282.83 424.656 1286.5 420.891 1286.72 415.243" stroke="#081422" stroke-width="3" stroke-linecap="round"/>
<path d="M1258.75 398.408C1267.89 405.559 1288.07 418.339 1295.68 412.256C1303.28 406.174 1295.41 397.775 1290.52 394.335L1257.66 367.725" stroke="#081422" stroke-width="3" stroke-linecap="round"/>
<path d="M1164.25 372.612C1168.33 374.752 1172.82 380.301 1174.3 385.374C1176.2 391.891 1181.54 397.503 1183.81 399.223" stroke="#081422" stroke-width="3" stroke-linecap="round"/>
<path d="M1245.72 336.226C1240.28 334.054 1225.08 329.655 1213.13 331.61C1201.18 333.565 1202.27 329.709 1196.57 326.451L1164.25 306.629" stroke="#081422" stroke-width="3" stroke-linecap="round"/>
<path d="M1289.16 334.597L1301.11 328.352M1299.75 404.925C1304.75 403.621 1313.06 396.236 1316.59 392.706L1330.43 385.374" stroke="#081422" stroke-width="3" stroke-linecap="round"/>
<path d="M1290.25 363.651C1282.28 368.448 1262.33 374.349 1246.26 361.75" stroke="#081422" stroke-width="3" stroke-linecap="round"/>
<path d="M1246.26 361.751C1240.28 370.169 1226.27 386.243 1218.02 383.202C1209.76 380.161 1213.49 371.255 1216.39 367.182C1224.81 350.346 1251.15 320.26 1289.16 334.597" stroke="#081422" stroke-width="3" stroke-linecap="round"/>
<path d="M1235.67 430.177C1235.45 438.214 1232.86 441.672 1231.6 442.396C1225.42 445.926 1218.56 440.495 1220.48 436.081C1221.79 433.636 1223.55 428.592 1224.26 426.375C1225.93 421.216 1235.89 422.139 1235.67 430.177Z" stroke="#081422" stroke-width="3" stroke-linecap="round"/>
<path d="M1213.13 437.781C1204.01 439.736 1203.9 430.45 1207.97 425.833C1209.28 424.354 1212.53 421.314 1216.66 417.959C1220.79 414.603 1223.45 417.466 1224.26 419.317C1225.34 421.76 1222.25 435.826 1213.13 437.781Z" stroke="#081422" stroke-width="3" stroke-linecap="round"/>
<path d="M1197.93 426.919C1187.93 426.701 1188.42 417.958 1192.49 414.156C1195.66 410.808 1203.74 404.598 1210.69 406.553C1217.64 408.509 1216.12 414.971 1214.49 418.23C1213.13 421.216 1207.92 427.136 1197.93 426.919Z" stroke="#081422" stroke-width="3" stroke-linecap="round"/>
<path d="M1201.18 396.779C1190.54 394.172 1181.54 400.58 1178.37 404.11C1176.2 406.934 1176.38 410.174 1176.75 411.442C1179.35 417.958 1191.41 413.252 1197.11 410.084C1202.9 406.735 1211.83 399.385 1201.18 396.779Z" stroke="#081422" stroke-width="3" stroke-linecap="round"/>
<path d="M1215.85 299.025C1217.48 302.646 1220.25 311.57 1218.29 318.304" stroke="#081422" stroke-width="3" stroke-linecap="round"/>
<path d="M1225.89 305.814C1226.35 307.806 1227.25 312.603 1227.25 315.861" stroke="#081422" stroke-width="3" stroke-linecap="round"/>
<path d="M1259.84 286.535L1266.08 308.53" stroke="#081422" stroke-width="3" stroke-linecap="round"/>
<path d="M1277.49 296.311L1275.58 309.344" stroke="#081422" stroke-width="3" stroke-linecap="round"/>
<path d="M1294.32 305.814L1284.82 313.146" stroke="#081422" stroke-width="3" stroke-linecap="round"/>
<circle cx="1106.42" cy="329.71" r="8.4176" fill="#081422"/>
<path d="M1120.25 330.429C1134.49 328.963 1156.84 330.697 1159.48 341.712C1162.12 352.727 1152.03 356.755 1146.66 357.393C1126.21 360.644 1099.09 359.114 1099.09 341.712" stroke="#081422" stroke-width="3" stroke-linecap="round"/>
<circle cx="1115.11" cy="345.459" r="1.5" stroke="#081422" stroke-width="2.97378"/>
<mask id="path-113-inside-1_2402_453" fill="white">
<ellipse cx="1128.96" cy="345.459" rx="3.25843" ry="2.98689"/>
</mask>
<path d="M1129.21 345.459C1129.21 345.423 1129.22 345.388 1129.23 345.364C1129.24 345.344 1129.25 345.345 1129.23 345.359C1129.2 345.389 1129.11 345.445 1128.96 345.445V351.445C1132.16 351.445 1135.21 349.005 1135.21 345.459H1129.21ZM1128.96 345.445C1128.8 345.445 1128.71 345.389 1128.68 345.359C1128.66 345.345 1128.67 345.344 1128.68 345.364C1128.69 345.388 1128.7 345.423 1128.7 345.459H1122.7C1122.7 349.005 1125.75 351.445 1128.96 351.445V345.445ZM1128.7 345.459C1128.7 345.494 1128.69 345.529 1128.68 345.553C1128.67 345.573 1128.66 345.572 1128.68 345.558C1128.71 345.528 1128.8 345.472 1128.96 345.472V339.472C1125.75 339.472 1122.7 341.912 1122.7 345.459H1128.7ZM1128.96 345.472C1129.11 345.472 1129.2 345.528 1129.23 345.558C1129.25 345.572 1129.24 345.573 1129.23 345.553C1129.22 345.529 1129.21 345.494 1129.21 345.459H1135.21C1135.21 341.912 1132.16 339.472 1128.96 339.472V345.472Z" fill="#081422" mask="url(#path-113-inside-1_2402_453)"/>
<circle cx="1142.8" cy="345.459" r="1.5" stroke="#081422" stroke-width="2.97378"/>
<ellipse cx="1342.65" cy="431.264" rx="7.87453" ry="7.87453" fill="#081422"/>
<path d="M1355.46 425.562C1360.23 425.562 1373.88 425.562 1380.3 425.562C1385.5 425.562 1388 426.712 1388 434.762C1388 442.584 1387.93 452.716 1388 456.805C1388.04 459.681 1386.61 462.862 1381.84 463.322C1377.06 463.783 1357.9 463.514 1348.91 463.322C1345.57 463.322 1339.67 461.43 1339.67 453.738L1339.67 445.113" stroke="#081422" stroke-width="3" stroke-linecap="round"/>
<path d="M1352.16 439.139L1364.1 447.285" stroke="#081422" stroke-width="3" stroke-linecap="round"/>
<path d="M1364.1 447.284L1385.83 427.19" stroke="#081422" stroke-width="3" stroke-linecap="round"/>
<path d="M1347.81 454.344L1356.57 442.396M1369.61 442.396L1381.48 454.344" stroke="#081422" stroke-width="3" stroke-linecap="round"/>
<path d="M1346.59 298.508L1318.35 319.959C1282.51 347.384 1317.54 378.158 1330.57 385.128L1372.12 358.517" stroke="#081422" stroke-width="3" stroke-linecap="round"/>
<path fill-rule="evenodd" clip-rule="evenodd" d="M1210.84 109.55C1202.07 114.477 1188.23 130.223 1191.27 161.63C1191.5 165.819 1192.63 176.235 1209.27 176.914H1236.79C1244.94 176.914 1254.11 174.537 1254.79 161.63C1256.42 145.273 1251.95 119.086 1235.35 109.652C1234.09 108.935 1232.64 108.645 1231.19 108.645H1214.72C1213.37 108.645 1212.02 108.89 1210.84 109.55ZM1221.86 133.598V131.396C1221.86 130.844 1222.31 130.396 1222.86 130.396C1223.42 130.396 1223.86 130.844 1223.86 131.396V133.584C1225.76 133.751 1227.64 134.374 1228.94 135.031C1229.44 135.279 1229.64 135.88 1229.39 136.373C1229.14 136.867 1228.54 137.066 1228.05 136.818C1226.73 136.157 1224.74 135.543 1222.91 135.541C1222.89 135.542 1222.88 135.542 1222.86 135.542C1222.85 135.542 1222.84 135.542 1222.83 135.541C1221.74 135.551 1220.81 135.78 1220.11 136.259C1219.43 136.723 1218.88 137.489 1218.67 138.798C1218.54 139.595 1218.69 140.223 1218.99 140.759C1219.31 141.317 1219.83 141.827 1220.52 142.309C1221.21 142.79 1222.01 143.21 1222.86 143.612C1223.18 143.759 1223.5 143.909 1223.83 144.059L1223.83 144.06L1223.84 144.06C1224.36 144.299 1224.89 144.539 1225.34 144.767C1227.6 145.902 1228.86 147.618 1229.11 149.452C1229.35 151.273 1228.56 153.035 1227.07 154.158C1226.07 154.908 1224.98 155.385 1223.86 155.645V157.903C1223.86 158.455 1223.42 158.903 1222.86 158.903C1222.31 158.903 1221.86 158.455 1221.86 157.903V155.892C1220.21 155.926 1218.59 155.554 1217.27 154.948C1216.77 154.719 1216.55 154.125 1216.77 153.623C1217 153.121 1217.6 152.9 1218.1 153.129C1219.41 153.73 1221.09 154.046 1222.73 153.822C1223.84 153.671 1224.92 153.273 1225.87 152.561C1226.82 151.843 1227.27 150.775 1227.12 149.717C1226.98 148.671 1226.24 147.458 1224.44 146.554C1224.01 146.337 1223.56 146.131 1223.07 145.909C1222.73 145.756 1222.38 145.596 1222.01 145.42C1221.13 145.005 1220.2 144.527 1219.37 143.948C1218.54 143.369 1217.77 142.655 1217.25 141.745C1216.73 140.813 1216.5 139.727 1216.7 138.484C1216.98 136.699 1217.8 135.421 1218.98 134.61C1219.84 134.015 1220.85 133.713 1221.86 133.598Z" fill="#081422"/>
<rect x="1209.94" y="100.48" width="25.1721" height="6.83093" rx="3.41547" stroke="#081422" stroke-width="2"/>
<rect x="1252.95" y="54.6348" width="40.7582" height="8.15163" rx="4.07582" fill="#081422"/>
<path d="M1212.67 97.09L1205.2 83.5039" stroke="#081422" stroke-width="2" stroke-linecap="round"/>
<path d="M1233.05 97.0956L1240.18 83.1699" stroke="#081422" stroke-width="2" stroke-linecap="round"/>
<path d="M1204.86 83.183C1207.12 83.6358 1212.13 83.7943 1214.03 80.8054C1215.93 77.8165 1218.45 78.6543 1219.47 79.4468L1222.52 82.164" stroke="#081422" stroke-width="2" stroke-linecap="round"/>
<path d="M1240.18 82.8998C1237.92 83.3526 1232.92 83.5111 1231.01 80.5222C1229.11 77.5333 1226.6 78.3711 1225.58 79.1636L1222.52 82.1541" stroke="#081422" stroke-width="2" stroke-linecap="round"/>
<path d="M1255.47 52.5957L1242.9 28.4805" stroke="#081422" stroke-width="2" stroke-linecap="round"/>
<path d="M1291.81 52.5975L1304.04 28.1426" stroke="#081422" stroke-width="2" stroke-linecap="round"/>
<path d="M1242.9 28.4083C1246.82 29.1882 1255.48 29.4612 1258.77 24.3135C1262.07 19.1658 1266.42 20.6087 1268.18 21.9736L1273.47 26.6534" stroke="#081422" stroke-width="2" stroke-linecap="round"/>
<path d="M1304.04 27.7188C1300.12 28.4988 1291.46 28.7717 1288.17 23.624C1284.88 18.4763 1280.53 19.9192 1278.76 21.2842L1273.47 26.4346" stroke="#081422" stroke-width="2" stroke-linecap="round"/>
<rect x="1167.36" y="172.381" width="33.5238" height="9.41254" rx="4.70627" transform="rotate(-61.5197 1167.36 172.381)" stroke="#081422" stroke-width="2"/>
<rect x="1306.4" y="145.305" width="33.5238" height="9.41254" rx="4.70627" stroke="#081422" stroke-width="2"/>
<rect x="1311.15" y="156.865" width="33.5238" height="9.41254" rx="4.70627" stroke="#081422" stroke-width="2"/>
<rect x="1306.4" y="168.4" width="33.5238" height="9.41254" rx="4.70627" stroke="#081422" stroke-width="2"/>
<rect x="1341.04" y="168.4" width="33.5238" height="9.41254" rx="4.70627" stroke="#081422" stroke-width="2"/>
<rect x="1346.48" y="158.227" width="33.5238" height="9.41254" rx="4.70627" stroke="#081422" stroke-width="2"/>
<rect x="1341.72" y="147.354" width="33.5238" height="9.41254" rx="4.70627" stroke="#081422" stroke-width="2"/>
<rect x="1335.61" y="135.799" width="33.5238" height="9.41254" rx="4.70627" stroke="#081422" stroke-width="2"/>
<rect x="1339.01" y="124.26" width="33.5238" height="9.41254" rx="4.70627" stroke="#081422" stroke-width="2"/>
<path d="M1243.78 77.7353C1247.86 72.4141 1251.39 67.8854 1258.53 65.5078H1289.1C1302.23 72.4141 1323.6 93.3592 1322.24 137.854" stroke="#081422" stroke-width="2" stroke-linecap="round"/>
<path d="M1254.31 174.883H1301.52" stroke="#081422" stroke-width="2" stroke-linecap="round"/>
<path d="M1273.81 137.318V141.931" stroke="#081422" stroke-width="2" stroke-linecap="round"/>
<path d="M1273.81 106.91V102.191" stroke="#081422" stroke-width="2" stroke-linecap="round"/>
<path d="M1282.3 108.994C1280.14 107.917 1276.87 106.908 1273.81 106.92C1270.12 106.934 1266.74 108.43 1266 113.07C1265.02 119.191 1272.44 121.388 1276.87 123.599C1282.98 126.657 1282.92 132.387 1279.24 135.148C1277.59 136.389 1275.71 137.071 1273.81 137.328C1271.03 137.705 1268.22 137.175 1266 136.167" stroke="#081422" stroke-width="2" stroke-linecap="round"/>
</g>
<defs>
<clipPath id="clip0_2402_453">
<rect width="1404" height="479" fill="white"/>
</clipPath>
</defs>
</svg>
