<svg width="1404" height="479" viewBox="0 0 1404 479" fill="none" xmlns="http://www.w3.org/2000/svg">
<g clip-path="url(#clip0_103_176)">
<rect width="1404" height="479" fill="#13263C"/>
<circle cx="29" cy="173" r="150" fill="#2ACF55"/>
<circle cx="29" cy="173" r="100" fill="#13263C"/>
<circle cx="157" cy="342" r="50" fill="#2ACF55"/>
<circle cx="157" cy="342" r="25" fill="#13263C"/>
<circle cx="71" cy="357" r="25" fill="#2ACF55"/>
<circle cx="71.5" cy="357.5" r="12.5" fill="#13263C"/>
<path d="M1420.14 221.524C1416.06 235.709 1405.87 255.805 1389.28 265.458M1389.28 265.458C1376.8 272.72 1318.56 296.413 1298.69 284.895C1245.86 254.264 1365.97 225.961 1389.28 265.458ZM1389.28 265.458C1391.49 269.207 1393.21 273.365 1394.28 277.951C1404.14 320.27 1237.35 368.537 1202.17 358.405M1202.17 358.405C1207.94 357.586 1222.64 352.211 1231.09 344.35M1202.17 358.405C1210.12 362.96 1226.41 372.818 1223.69 382.895" stroke="#2ACF55" stroke-width="5" stroke-linecap="round" stroke-linejoin="round"/>
<path d="M1420.83 113.959C1416.74 128.144 1467.59 146.847 1451 156.5M1451 156.5C1438.52 163.762 1773.37 169.412 1753.5 157.894C1700.67 127.263 1427.69 117.003 1451 156.5ZM1451 156.5C1582.54 156.5 1412.43 151.915 1413.5 156.5C1423.36 198.819 1234 237.341 1193.35 237.341M1193.35 237.341C1199.12 236.521 1213.05 225.86 1221.5 218M1193.35 237.341C1201.31 241.896 1224.22 253.423 1221.5 263.5" stroke="#2ACF55" stroke-width="5" stroke-linecap="round" stroke-linejoin="round"/>
<path d="M1527.89 248.11C1506.49 227.53 1468.52 202.803 1429.91 202.71M1429.91 202.71C1400.87 202.64 1502.84 266.504 1479.85 306.564C1418.72 413.094 1429.12 294.938 1429.91 202.71ZM1429.91 202.71C1429.99 193.956 1428.79 184.986 1426.04 175.927C1400.58 92.3288 1212.65 111.561 1161.61 164.627M1161.61 164.627C1172.48 160.244 1203.5 154.791 1226.12 159.969M1161.61 164.627C1170.87 148.687 1189.3 115.124 1174.42 100.321" stroke="#2ACF55" stroke-width="10" stroke-linecap="round" stroke-linejoin="round"/>
</g>
<defs>
<clipPath id="clip0_103_176">
<rect width="1404" height="479" fill="white"/>
</clipPath>
</defs>
</svg>
